<svg xmlns="http://www.w3.org/2000/svg" width="800" height="238" viewBox="0 0 800 238" role="img" aria-label="关于 kyrie">
<defs>
<linearGradient id="bg" x2="1" y2="1"><stop stop-color="#111f36"/><stop offset="1" stop-color="#091322"/></linearGradient>
<linearGradient id="edge"><stop stop-color="#68e6d0" stop-opacity=".8"/><stop offset=".5" stop-color="#8593ff" stop-opacity=".5"/><stop offset="1" stop-color="#68e6d0" stop-opacity=".15"/></linearGradient>
<radialGradient id="glow"><stop stop-color="#8593ff" stop-opacity=".18"/><stop offset="1" stop-color="#8593ff" stop-opacity="0"/></radialGradient>
<clipPath id="bounds"><rect x="1" y="1" width="798" height="236" rx="16"/></clipPath>
</defs>
<style>text{font-family:Verdana,Microsoft YaHei,sans-serif}.enter{animation:enter 1.6s ease-out both}@keyframes enter{from{opacity:.3;transform:translateY(5px)}to{opacity:1;transform:translateY(0)}}</style>
<rect x=".7" y=".7" width="798.6" height="236.6" rx="16" fill="url(#bg)" stroke="url(#edge)" stroke-width="1.4"/>
<g clip-path="url(#bounds)"><ellipse cx="700" cy="40" rx="220" ry="160" fill="url(#glow)"/>
<path d="M580 0 800 150M620 0 800 122M660 0 800 94M700 0 800 66" stroke="#8593ff" stroke-opacity=".055"/>
<path d="M22 1H178" stroke="#68e6d0" stroke-width="2"/><circle cx="777" cy="22" r="2" fill="#68e6d0"/>

<g transform="translate(108 111)">
<circle r="71" fill="#10293b" stroke="#39657a" stroke-dasharray="2 8"/>
<ellipse rx="77" ry="34" fill="none" stroke="#72dfd1" stroke-opacity=".6" transform="rotate(-32)"/>
<ellipse rx="77" ry="34" fill="none" stroke="#9394fa" stroke-opacity=".5" transform="rotate(40)"/>
<circle r="48" fill="#142a40" stroke="#6dc5cc" stroke-width="1.5"/>
<path d="M-37 29 35-32" stroke="#8a9df4" stroke-opacity=".15" stroke-width="12"/>
<circle cx="65" cy="-40" r="4" fill="#8af4d9"/><circle cx="-58" cy="-39" r="3" fill="#b2a3ff"/>
<text x="0" y="19" text-anchor="middle" fill="#d6fff5" font-family="Verdana,sans-serif" font-size="62" font-weight="700">k</text>
</g>
<text x="108" y="208" fill="#8faec7" font-size="13" font-weight="400" text-anchor="middle">kyrie / UESTC</text>
<g class="enter">
<text x="210" y="48" fill="#e6f4fc" font-size="24" font-weight="700" text-anchor="start">从控制走向海洋</text>
<text x="210" y="86" fill="#b9cadd" font-size="17" font-weight="400" text-anchor="start">电子科技大学 · 控制工程研究生</text>
<text x="210" y="112" fill="#b9cadd" font-size="17" font-weight="400" text-anchor="start">研究方向：水下机器人协同控制。</text>
<text x="210" y="138" fill="#b9cadd" font-size="17" font-weight="400" text-anchor="start">分享 MATLAB 学习与仿真代码，</text>
<text x="210" y="164" fill="#a8dbdb" font-size="17" font-weight="400" text-anchor="start">欢迎一起交流控制、机器人与仿真实现。</text>
<path d="M210 185H750" stroke="#31475d"/>
<text x="210" y="212" fill="#a49bdb" font-size="14" font-weight="400" text-anchor="start">探索 · 学习 · 交流</text>
</g>
</g></svg>