<svg xmlns="http://www.w3.org/2000/svg" width="1200" height="360" viewBox="0 0 1200 360" role="img" aria-labelledby="title desc">
  <title id="title">kyrie | Control Engineering and Underwater Robotics</title>
  <desc id="desc">An animated research vessel sails across a moonlit ocean, gently pitching on moving waves with a flowing wake.</desc>
  <defs>
    <linearGradient id="sky" x2="0" y2="1"><stop stop-color="#071320"/><stop offset="1" stop-color="#173a50"/></linearGradient>
    <linearGradient id="sea" x2="0" y2="1"><stop stop-color="#15475c"/><stop offset="1" stop-color="#061923"/></linearGradient>
    <linearGradient id="hull" x2="0" y2="1"><stop stop-color="#e0edf0"/><stop offset="1" stop-color="#829eaf"/></linearGradient>
    <linearGradient id="bridge" x2="0" y2="1"><stop stop-color="#fbf6df"/><stop offset="1" stop-color="#91bdc7"/></linearGradient>
    <linearGradient id="glass" x2="0" y2="1"><stop stop-color="#76b9c7"/><stop offset="1" stop-color="#183a50"/></linearGradient>
    <radialGradient id="moonlight"><stop stop-color="#b8e0ed" stop-opacity=".14"/><stop offset="1" stop-color="#b8e0ed" stop-opacity="0"/></radialGradient>
    <linearGradient id="reflection" x2="0" y2="1"><stop stop-color="#90d8db" stop-opacity=".25"/><stop offset="1" stop-color="#90d8db" stop-opacity="0"/></linearGradient>
    <clipPath id="frame"><rect width="1200" height="360" rx="20"/></clipPath>
    <path id="wave" d="M-240 0Q-180-7-120 0T0 0T120 0T240 0T360 0T480 0T600 0T720 0T840 0T960 0T1080 0T1200 0T1320 0T1440 0"/>
  </defs>
  <g clip-path="url(#frame)">
    <rect width="1200" height="360" fill="url(#sky)"/>
    <ellipse cx="1040" cy="71" rx="210" ry="155" fill="url(#moonlight)"/>
    <g fill="#cadbe3" opacity=".5">
      <circle cx="674" cy="51" r="1"/><circle cx="779" cy="28" r="1.2"/><circle cx="916" cy="58" r="1"/>
      <circle cx="1136" cy="38" r="1.1"/><circle cx="1154" cy="123" r=".8"/><circle cx="723" cy="112" r=".8"/>
    </g>
    <circle cx="1057" cy="67" r="22" fill="#dce9e9" opacity=".9"/>
    <circle cx="1065" cy="59" r="22" fill="#11293b"/>
    <path d="M590 213L689 198 735 208 796 196 867 210 944 200 1020 214 1110 199 1200 212V239H590Z" fill="#17394b" opacity=".6"/>
    <path d="M0 234Q240 229 480 234T960 234T1440 234V360H0Z" fill="url(#sea)"/>
    <path d="M1017 240L1091 240 1183 360H932Z" fill="url(#reflection)" opacity=".4"/>
    <g fill="none" stroke="#7dbec8" stroke-width="1">
      <g transform="translate(0 240)" opacity=".15"><use href="#wave"><animateTransform attributeName="transform" type="translate" from="0 0" to="-240 0" dur="16s" repeatCount="indefinite"/></use></g>
      <g transform="translate(0 265)" opacity=".16"><use href="#wave"><animateTransform attributeName="transform" type="translate" from="0 0" to="-240 0" dur="11s" repeatCount="indefinite"/></use></g>
      <g transform="translate(0 305)" opacity=".12"><use href="#wave"><animateTransform attributeName="transform" type="translate" from="0 0" to="-240 0" dur="8s" repeatCount="indefinite"/></use></g>
      <g transform="translate(0 346)" opacity=".08"><use href="#wave"><animateTransform attributeName="transform" type="translate" from="0 0" to="-240 0" dur="6s" repeatCount="indefinite"/></use></g>
    </g>
    <!-- Wake flowing astern. -->
    <g fill="none" stroke="#9dd9db" stroke-linecap="round">
      <path d="M632 249Q701 237 785 246" stroke-width="2" stroke-dasharray="28 12 8 18" opacity=".4"><animate attributeName="stroke-dashoffset" from="0" to="132" dur="3s" repeatCount="indefinite"/></path>
      <path d="M594 258Q689 246 790 253" stroke-dasharray="36 19 12 17" opacity=".25"><animate attributeName="stroke-dashoffset" from="0" to="168" dur="4s" repeatCount="indefinite"/></path>
    </g>
    <ellipse cx="914" cy="257" rx="156" ry="12" fill="#040f1a" opacity=".38"/>
    <!-- Research vessel with aft crane, working deck, bridge and radar. -->
    <g>
      <animateTransform attributeName="transform" type="translate" values="0 0;0 -3;0 0;0 3;0 0" dur="6s" repeatCount="indefinite"/>
      <g>
        <animateTransform attributeName="transform" type="rotate" values="-.7 915 233;.7 915 233;-.7 915 233" dur="6s" repeatCount="indefinite"/>
        <path d="M803 206V169H833V206M801 171H835" fill="none" stroke="#e5b976" stroke-width="5"/>
        <path d="M806 175L829 201M829 175L806 201" fill="none" stroke="#b7864c" stroke-width="2"/>
        <path d="M818 170V193" stroke="#b5c8cb"/>
        <path d="M815 194Q819 201 822 193" fill="none" stroke="#c4d4d8" stroke-width="1.5"/>
        <rect x="847" y="189" width="37" height="23" rx="2" fill="#376b7a"/>
        <path d="M853 192V210M861 192V210M869 192V210M877 192V210" stroke="#77a1ac" opacity=".6"/>
        <path d="M890 211V174H973L989 211Z" fill="url(#hull)"/>
        <path d="M911 174V146H963L977 174Z" fill="url(#bridge)"/>
        <path d="M907 145H965L969 151H907Z" fill="#e1ebeb"/>
        <path d="M918 154H931V166H918ZM936 154H949V166H936ZM954 154H962L968 166H954Z" fill="url(#glass)"/>
        <path d="M916 170H972" stroke="#f7f5df" stroke-width="2"/>
        <g fill="#214958"><rect x="901" y="183" width="10" height="11" rx="1"/><rect x="918" y="183" width="10" height="11" rx="1"/><rect x="935" y="183" width="10" height="11" rx="1"/></g>
        <rect x="955" y="183" width="12" height="28" rx="1" fill="#6d919f"/>
        <circle cx="964" cy="198" r="1" fill="#e7eeed"/>
        <circle cx="886" cy="190" r="7" fill="#e89f64"/><circle cx="886" cy="190" r="3.5" fill="#294c60"/>
        <path d="M937 146V104M935 117H961M944 145L937 124" fill="none" stroke="#d5e3e6" stroke-width="2.5"/>
        <rect x="926" y="110" width="23" height="4" rx="2" fill="#e9eeee">
          <animate attributeName="width" values="23;6;23;6;23" dur="4s" repeatCount="indefinite"/>
          <animate attributeName="x" values="926;934.5;926;934.5;926" dur="4s" repeatCount="indefinite"/>
        </rect>
        <path d="M958 144V122M913 145V127" stroke="#a6c5ce" stroke-width="1.5"/>
        <circle cx="937" cy="102" r="2" fill="#f2b993"/><circle cx="963" cy="171" r="2" fill="#8fedd0"/>
        <path d="M783 208V198H889M790 198V208M810 198V208M831 198V208M852 198V208M873 198V208M979 206V193H1043M998 193V205M1019 193V203M1040 193V199" fill="none" stroke="#c1d5dc" stroke-width="1.3"/>
        <path d="M1001 201V189H1007V201M1024 198V185H1030V198" fill="#849ea9"/>
        <path d="M774 208H976Q1016 207 1066 192L1050 221Q1040 239 1014 246H805Q784 235 774 208Z" fill="url(#hull)"/>
        <path d="M785 226H1045Q1035 241 1014 246H805Q794 239 785 226Z" fill="#1d4c61"/>
        <path d="M797 240H1028L1014 246H805Z" fill="#d58262"/>
        <path d="M778 210H976Q1020 207 1063 195" fill="none" stroke="#f3f5ed" stroke-width="2"/>
        <g fill="#244e60"><circle cx="985" cy="219" r="3"/><circle cx="1000" cy="216" r="3"/><circle cx="1015" cy="213" r="3"/></g>
        <path d="M825 212V225M862 212V225" stroke="#123b4e" stroke-width="5"/>
        <text x="901" y="221" fill="#325c6d" font-family="Segoe UI,Arial,sans-serif" font-size="9" letter-spacing="2">KYRIE</text>
      </g>
    </g>
    <path d="M1019 251Q1050 242 1073 250T1110 251" fill="none" stroke="#b5e2e3" stroke-width="1.5" stroke-dasharray="18 10 5 14" opacity=".6"><animate attributeName="stroke-dashoffset" from="0" to="94" dur="2.5s" repeatCount="indefinite"/></path>
    <g fill="none" stroke="#70b2c0" stroke-linecap="round" opacity=".2">
      <path d="M820 277h54M923 289h79M1072 275h42M706 293h37M871 321h103">
        <animateTransform attributeName="transform" type="translate" values="18 0;-18 0" dur="5s" repeatCount="indefinite"/>
        <animate attributeName="opacity" values="0;1;0" dur="5s" repeatCount="indefinite"/>
      </path>
    </g>
    <path d="M64 76H96" stroke="#7ed5ce" stroke-width="3" stroke-linecap="round"/>
    <text x="63" y="166" fill="#f0f5f7" font-family="Segoe UI,Arial,sans-serif" font-size="78" font-weight="650" letter-spacing="-3">kyrie</text>
    <text x="66" y="207" fill="#aec9d5" font-family="Segoe UI,Arial,sans-serif" font-size="22">Control Engineering · Underwater Robotics</text>
    <text x="67" y="253" fill="#76b4bf" font-family="Segoe UI,Arial,sans-serif" font-size="12" letter-spacing="3">UESTC / KRIE2324</text>
  </g>
</svg>
